<svg xmlns="http://www.w3.org/2000/svg" version="1.1" viewBox="209.34 189.45 1372.8 1346.64">
<path fill="#ffffff" d="   M 1222.28 189.47   Q 1573.10 189.43 1581.71 189.49   A 0.44 0.43 89.9 0 1 1582.14 189.93   L 1582.14 393.61   A 0.63 0.63 0.0 0 1 1581.51 394.24   L 1339.57 394.24   A 0.54 0.53 -90.0 0 0 1339.04 394.78   L 1339.04 1212.83   A 0.52 0.51 -89.8 0 1 1338.53 1213.35   Q 1326.17 1213.39 1222.41 1213.41   Q 1118.65 1213.42 1106.29 1213.38   A 0.52 0.51 89.8 0 1 1105.78 1212.86   L 1105.57 394.81   A 0.54 0.53 90.0 0 0 1105.04 394.27   L 863.10 394.33   A 0.63 0.63 0.0 0 1 862.47 393.70   L 862.42 190.02   A 0.44 0.43 -90.0 0 1 862.85 189.58   Q 871.46 189.52 1222.28 189.47   Z"/>
<path fill="#ffffff" d="   M 734.09 1152.88   C 729.69 1156.87 725.07 1161.30 720.80 1164.90   Q 663.09 1213.46 588.05 1226.50   Q 524.78 1237.50 462.97 1226.24   Q 399.06 1214.60 347.05 1177.19   Q 320.45 1158.05 297.61 1132.64   Q 230.91 1058.44 214.80 960.79   Q 203.80 894.08 214.95 827.19   Q 231.29 729.17 298.73 655.71   Q 321.73 630.66 348.26 611.78   Q 398.95 575.73 461.73 563.97   Q 501.89 556.45 544.33 558.60   C 582.44 560.52 620.00 569.64 653.83 586.62   Q 690.37 604.97 720.38 634.13   Q 725.59 639.20 734.39 648.31   A 1.50 1.50 0.0 0 0 736.97 647.27   L 736.97 577.06   A 0.41 0.40 90.0 0 1 737.37 576.65   L 953.86 576.65   A 0.44 0.43 -90.0 0 1 954.29 577.09   L 954.29 1535.47   A 0.62 0.61 90.0 0 1 953.68 1536.09   L 734.99 1536.09   A 0.44 0.44 0.0 0 1 734.55 1535.65   L 734.55 1153.08   A 0.27 0.27 0.0 0 0 734.09 1152.88   Z   M 543.97 751.80   C 497.82 764.35 460.72 801.83 448.59 848.28   Q 440.44 879.47 443.71 912.65   Q 445.28 928.50 449.66 943.11   C 462.65 986.35 496.68 1020.94 538.91 1035.87   Q 549.70 1039.68 559.89 1041.49   Q 571.18 1043.50 581.48 1044.29   C 593.12 1045.18 603.90 1044.45 616.22 1042.61   Q 625.10 1041.30 630.24 1039.99   Q 666.33 1030.85 693.37 1005.42   Q 723.10 977.45 733.39 939.68   C 743.35 903.16 741.45 858.46 723.66 823.58   Q 706.25 789.43 673.66 768.08   C 651.00 753.24 624.95 746.71 598.00 745.75   Q 569.87 744.75 543.97 751.80   Z"/>
</svg>