<svg xmlns="http://www.w3.org/2000/svg" version="1.1" viewBox="291.01 718.78 1199.95 313.36">
<path fill="#ffffff" d="   M 1126.77 838.77   L 1117.72 857.14   A 0.70 0.68 -62.7 0 1 1116.78 857.45   C 1108.39 852.95 1097.91 849.12 1088.29 848.88   Q 1082.31 848.73 1077.43 849.59   Q 1071.85 850.57 1070.94 855.54   C 1070.09 860.19 1072.56 863.13 1076.88 865.14   Q 1083.49 868.22 1088.09 869.59   Q 1100.55 873.30 1105.92 875.58   Q 1112.69 878.45 1120.22 884.04   C 1128.31 890.05 1133.81 898.76 1135.30 908.26   C 1136.67 917.00 1135.94 926.90 1132.32 935.80   C 1122.46 959.97 1092.57 964.31 1069.24 964.50   Q 1046.18 964.68 1025.11 953.35   Q 1020.81 951.03 1017.03 947.67   A 0.52 0.51 20.9 0 0 1016.17 948.05   L 1016.17 959.88   A 0.43 0.43 0.0 0 1 1015.74 960.31   L 967.56 960.31   A 0.28 0.28 0.0 0 1 967.28 960.03   Q 967.30 921.33 967.28 881.25   C 967.28 870.66 961.78 858.60 951.59 854.46   C 934.03 847.33 912.94 862.37 912.89 880.95   Q 912.80 914.72 912.87 959.91   A 0.39 0.39 0.0 0 1 912.48 960.30   L 864.65 960.30   A 0.72 0.72 0.0 0 1 863.93 959.58   L 863.93 819.34   A 0.67 0.67 0.0 0 1 864.60 818.67   L 912.38 818.67   A 0.50 0.50 0.0 0 1 912.88 819.17   L 912.88 832.93   A 0.50 0.50 0.0 0 0 913.73 833.28   C 924.19 822.65 938.29 814.52 953.49 814.53   Q 968.97 814.55 983.73 820.40   Q 996.93 825.62 1004.07 833.68   C 1012.81 843.54 1016.14 855.53 1016.15 868.75   Q 1016.19 909.37 1016.13 940.90   A 0.44 0.44 0.0 0 0 1016.96 941.12   L 1033.47 912.54   A 0.62 0.62 0.0 0 1 1034.41 912.37   Q 1046.89 922.89 1062.89 927.36   C 1069.65 929.24 1082.45 928.93 1084.10 919.84   C 1085.30 913.28 1079.93 909.89 1074.33 907.72   Q 1071.89 906.78 1057.29 900.71   Q 1042.14 894.40 1031.89 883.12   Q 1026.56 877.26 1025.00 868.58   C 1020.66 844.36 1033.95 825.57 1057.03 818.54   C 1079.14 811.80 1105.02 813.89 1126.56 822.37   A 0.62 0.62 0.0 0 0 1127.41 821.79   L 1127.41 819.30   A 0.64 0.63 -90.0 0 1 1128.04 818.66   L 1147.13 818.66   A 0.67 0.67 0.0 0 0 1147.80 817.99   Q 1147.73 792.76 1147.86 786.29   C 1148.56 749.83 1166.79 715.64 1208.73 719.01   Q 1220.21 719.93 1231.06 724.15   C 1235.29 725.80 1237.97 727.88 1242.89 731.05   A 0.79 0.78 29.6 0 1 1243.17 732.05   L 1226.79 765.29   A 0.81 0.81 0.0 0 1 1225.68 765.64   C 1217.56 761.23 1201.95 759.18 1198.71 770.96   Q 1197.01 777.12 1196.88 782.60   Q 1196.46 800.73 1196.73 818.38   A 0.30 0.30 0.0 0 0 1197.03 818.67   L 1228.77 818.67   A 0.44 0.44 0.0 0 1 1229.21 819.11   L 1229.21 842.24   A 0.22 0.22 0.0 0 0 1229.59 842.38   C 1244.18 826.17 1261.29 816.46 1283.22 814.81   C 1302.82 813.34 1321.71 817.14 1337.93 828.56   C 1359.84 843.97 1367.50 869.92 1365.56 895.91   A 0.37 0.36 2.5 0 1 1365.19 896.24   L 1263.43 896.24   A 0.55 0.55 0.0 0 0 1262.89 896.88   C 1263.33 899.38 1263.23 902.13 1263.98 905.13   Q 1266.49 915.18 1276.25 920.83   C 1284.92 925.83 1294.72 926.24 1304.48 924.69   C 1313.83 923.19 1321.25 917.04 1327.57 910.21   A 0.64 0.64 0.0 0 1 1328.31 910.07   L 1362.64 926.99   A 0.71 0.71 0.0 0 1 1362.93 928.01   Q 1346.22 954.98 1315.02 961.68   C 1291.25 966.79 1267.34 965.42 1246.80 951.92   C 1214.39 930.62 1202.86 891.63 1219.89 856.40   A 0.37 0.37 0.0 0 0 1219.55 855.87   L 1197.04 855.87   A 0.38 0.38 0.0 0 0 1196.66 856.25   L 1196.66 959.66   A 0.65 0.65 0.0 0 1 1196.01 960.31   L 1148.38 960.31   A 0.60 0.60 0.0 0 1 1147.78 959.71   L 1147.78 856.62   A 0.76 0.75 90.0 0 0 1147.03 855.86   L 1127.90 855.86   A 0.53 0.53 0.0 0 1 1127.37 855.33   L 1127.37 838.91   A 0.32 0.32 0.0 0 0 1126.77 838.77   Z   M 1290.96 869.23   Q 1312.77 869.22 1317.25 869.26   A 0.46 0.46 0.0 0 0 1317.71 868.74   C 1316.08 853.96 1305.29 846.46 1290.96 846.47   C 1276.63 846.47 1265.84 853.97 1264.21 868.75   A 0.46 0.46 0.0 0 0 1264.67 869.27   Q 1269.15 869.23 1290.96 869.23   Z"/>
<path fill="#ffffff" d="   M 521.47 732.45   Q 598.85 732.43 600.89 732.54   A 0.65 0.65 0.0 0 1 601.51 733.19   L 601.51 777.65   A 0.47 0.47 0.0 0 1 601.04 778.12   L 547.93 778.12   A 0.49 0.48 90.0 0 0 547.45 778.61   L 547.45 959.94   A 0.36 0.36 0.0 0 1 547.08 960.30   Q 543.34 960.30 521.51 960.31   Q 499.69 960.31 495.94 960.31   A 0.36 0.36 0.0 0 1 495.58 959.95   L 495.52 778.62   A 0.49 0.48 90.0 0 0 495.03 778.13   L 441.92 778.15   A 0.47 0.47 0.0 0 1 441.45 777.68   L 441.44 733.22   A 0.65 0.65 0.0 0 1 442.06 732.56   Q 444.10 732.46 521.47 732.45   Z"/>
<path fill="#ffffff" d="   M 407.16 947.25   Q 393.76 959.97 375.01 963.24   C 350.37 967.54 326.36 960.27 309.70 941.25   Q 293.77 923.07 291.43 898.07   C 288.90 870.90 297.82 845.60 319.37 828.34   C 331.96 818.26 347.82 814.06 364.24 814.61   Q 384.98 815.30 400.85 828.01   C 403.09 829.80 405.77 832.65 407.83 834.60   A 0.30 0.30 0.0 0 0 408.34 834.38   L 408.34 819.28   A 0.60 0.60 0.0 0 1 408.94 818.68   L 455.92 818.68   A 0.70 0.70 0.0 0 1 456.62 819.38   L 456.62 1031.47   A 0.67 0.67 0.0 0 1 455.95 1032.14   L 408.27 1032.14   A 0.49 0.48 0.0 0 1 407.78 1031.66   L 407.78 947.52   A 0.37 0.37 0.0 0 0 407.16 947.25   Z   M 376.56 856.32   Q 368.81 856.14 362.62 858.82   Q 343.06 867.29 342.99 889.60   C 342.93 908.39 356.39 922.22 375.04 922.64   C 393.70 923.07 407.77 909.87 408.57 891.11   Q 409.53 868.81 390.38 859.46   Q 384.32 856.50 376.56 856.32   Z"/>
<path fill="#ffffff" d="   M 630.91 838.87   Q 635.77 832.54 641.93 827.21   Q 659.61 811.88 682.97 815.27   Q 694.91 817.00 704.77 823.02   A 0.69 0.68 29.0 0 1 705.03 823.91   L 685.31 863.92   A 0.90 0.90 0.0 0 1 683.97 864.25   Q 680.82 861.95 679.97 861.54   Q 670.62 856.96 659.23 857.04   Q 648.36 857.12 640.74 863.51   C 635.73 867.70 632.98 874.62 631.25 880.85   Q 630.48 883.59 630.49 888.82   Q 630.51 916.10 630.50 959.55   A 0.77 0.76 -0.0 0 1 629.73 960.31   L 582.05 960.31   A 0.43 0.43 0.0 0 1 581.62 959.88   L 581.62 819.27   A 0.59 0.59 0.0 0 1 582.21 818.68   L 629.96 818.68   A 0.54 0.54 0.0 0 1 630.50 819.22   L 630.50 838.73   A 0.23 0.23 0.0 0 0 630.91 838.87   Z"/>
<path fill="#ffffff" d="   M 802.73 831.21   L 802.73 819.15   A 0.47 0.47 0.0 0 1 803.20 818.68   L 851.13 818.68   A 0.50 0.49 0.0 0 1 851.63 819.17   L 851.63 959.82   A 0.49 0.49 0.0 0 1 851.14 960.31   L 803.74 960.31   A 0.44 0.44 0.0 0 1 803.30 959.87   L 803.30 944.89   A 0.47 0.47 0.0 0 0 802.58 944.50   Q 802.48 944.56 799.49 947.58   C 786.89 960.26 769.06 965.61 750.74 964.24   Q 737.59 963.26 727.10 958.36   C 705.83 948.44 691.39 928.03 687.29 904.99   C 685.29 893.82 685.26 880.26 688.58 868.80   Q 689.76 864.72 689.98 862.79   A 3.14 2.89 -32.0 0 1 690.24 861.84   C 694.41 852.67 698.38 844.87 705.17 837.16   Q 722.75 817.22 749.19 814.87   C 769.27 813.09 787.18 817.98 802.08 831.50   A 0.39 0.39 0.0 0 0 802.73 831.21   Z   M 770.05 922.77   Q 777.80 922.95 783.99 920.27   Q 803.55 911.80 803.62 889.49   C 803.68 870.71 790.23 856.88 771.57 856.46   C 752.92 856.03 738.85 869.22 738.05 887.99   Q 737.09 910.27 756.24 919.63   Q 762.30 922.59 770.05 922.77   Z"/>
<path fill="#ffffff" d="   M 1416.78 838.87   Q 1421.63 832.53 1427.79 827.20   Q 1445.47 811.87 1468.83 815.26   Q 1480.77 816.99 1490.63 823.01   A 0.69 0.68 29.0 0 1 1490.89 823.90   L 1471.18 863.91   A 0.90 0.90 0.0 0 1 1469.84 864.24   Q 1466.69 861.94 1465.84 861.53   Q 1456.49 856.95 1445.10 857.03   Q 1434.23 857.11 1426.61 863.50   C 1421.60 867.70 1418.85 874.62 1417.12 880.85   Q 1416.35 883.59 1416.36 888.82   Q 1416.38 916.10 1416.38 959.55   A 0.77 0.76 -0.0 0 1 1415.61 960.31   L 1367.93 960.31   A 0.43 0.43 0.0 0 1 1367.50 959.88   L 1367.48 819.27   A 0.59 0.59 0.0 0 1 1368.07 818.68   L 1415.82 818.68   A 0.54 0.54 0.0 0 1 1416.36 819.22   L 1416.37 838.73   A 0.23 0.23 0.0 0 0 1416.78 838.87   Z"/>
</svg>