<svg xmlns="http://www.w3.org/2000/svg" version="1.1" viewBox="35.04 262.24 629.8 175.98">
<path fill="#000000" d="   M 60.20 411.97   Q 38.08 388.46 35.41 358.38   C 29.37 290.32 99.28 241.43 161.06 271.09   C 202.23 290.86 221.87 339.91 204.44 382.99   C 193.16 410.85 168.67 431.00 139.38 436.65   Q 131.03 438.26 112.37 438.22   Q 58.89 438.11 47.01 438.12   Q 45.19 438.12 43.75 436.20   C 40.92 432.44 42.96 429.96 46.00 426.98   Q 55.46 417.71 60.20 412.76   A 0.58 0.57 45.4 0 0 60.20 411.97   Z   M 119.40 323.21   Q 101.61 323.86 86.18 332.80   A 0.91 0.91 0.0 0 1 85.23 332.78   Q 76.17 326.93 67.06 329.78   Q 60.80 331.73 56.89 336.81   Q 53.10 341.75 52.65 347.34   C 51.93 356.30 55.97 363.42 63.91 367.84   A 0.96 0.95 13.1 0 1 64.42 368.65   Q 64.95 379.36 71.76 388.41   C 82.55 402.74 101.20 410.05 118.78 410.83   C 139.23 411.74 159.59 405.53 172.92 389.94   Q 180.62 380.92 181.56 368.28   A 0.84 0.81 -12.8 0 1 182.00 367.61   Q 189.19 363.89 191.90 356.63   C 196.75 343.65 187.20 328.85 172.99 328.85   Q 166.59 328.86 160.76 332.67   A 1.02 1.00 37.5 0 1 159.88 332.78   C 158.22 332.21 156.54 331.03 154.79 330.19   Q 141.73 323.89 126.77 323.25   A 0.91 0.90 3.6 0 1 125.90 322.27   Q 126.87 310.15 139.55 306.00   A 1.43 1.43 0.0 0 1 141.41 307.16   L 141.57 308.32   A 1.65 1.59 -64.1 0 0 141.76 308.90   Q 145.24 315.08 151.70 316.69   Q 156.62 317.91 161.08 315.77   Q 165.89 313.47 167.92 309.26   Q 172.18 300.42 165.65 292.86   Q 162.23 288.90 157.22 288.28   Q 146.89 287.00 141.82 296.57   A 0.24 0.17 79.1 0 0 141.79 296.64   L 141.01 298.83   A 1.22 1.19 -84.7 0 1 140.09 299.61   Q 125.90 302.18 120.88 315.33   Q 119.39 319.25 119.61 322.99   A 0.21 0.21 0.0 0 1 119.40 323.21   Z"/>
<circle fill="#000000" cx="587.80" cy="302.97" r="14.86"/>
<path fill="#000000" d="   M 445.95 333.02   A 0.38 0.37 -67.7 0 0 446.59 332.75   L 446.59 290.09   A 0.50 0.49 0.0 0 1 447.09 289.60   L 470.21 289.60   A 0.81 0.80 0.0 0 1 471.02 290.40   L 471.01 407.56   A 0.58 0.57 0.0 0 1 470.43 408.13   L 448.08 408.13   A 0.32 0.32 0.0 0 1 447.76 407.81   L 447.76 398.78   A 0.45 0.45 0.0 0 0 446.97 398.49   C 437.22 410.35 418.69 412.31 405.39 405.70   Q 392.93 399.52 387.48 385.85   C 376.56 358.50 390.43 324.24 423.25 324.13   C 431.97 324.10 439.86 327.01 445.95 333.02   Z   M 441.91 383.12   L 446.98 388.22   A 0.46 0.46 0.0 0 0 447.76 387.90   Q 447.86 368.00 447.71 365.28   C 446.37 340.33 412.37 337.81 407.84 361.89   C 405.31 375.30 412.69 386.89 426.36 388.34   C 429.96 388.72 435.83 387.46 439.39 384.52   Q 440.77 383.39 441.20 383.07   A 0.55 0.54 -40.6 0 1 441.91 383.12   Z"/>
<path fill="#000000" d="   M 538.80 333.02   A 0.38 0.37 -67.7 0 0 539.44 332.75   L 539.44 290.09   A 0.50 0.49 -0.0 0 1 539.94 289.60   L 563.06 289.60   A 0.81 0.80 0.0 0 1 563.87 290.40   L 563.87 407.56   A 0.58 0.57 0.0 0 1 563.29 408.13   L 540.94 408.13   A 0.32 0.32 0.0 0 1 540.62 407.81   L 540.62 398.78   A 0.45 0.45 0.0 0 0 539.83 398.49   C 530.08 410.35 511.55 412.31 498.25 405.70   Q 485.79 399.53 480.34 385.86   C 469.42 358.51 483.28 324.25 516.10 324.13   C 524.82 324.10 532.71 327.01 538.80 333.02   Z   M 534.67 383.10   L 539.75 388.19   A 0.46 0.46 0.0 0 0 540.53 387.87   Q 540.60 367.97 540.45 365.25   C 539.08 340.31 505.08 337.83 500.58 361.91   C 498.07 375.32 505.46 386.90 519.13 388.33   C 522.73 388.71 528.60 387.44 532.16 384.50   Q 533.53 383.37 533.96 383.05   A 0.55 0.54 -40.6 0 1 534.67 383.10   Z"/>
<path fill="#000000" d="   M 634.97 302.74   Q 642.99 302.74 646.58 302.86   A 0.58 0.58 0.0 0 1 647.15 303.44   L 647.15 324.74   A 0.50 0.49 90.0 0 0 647.64 325.24   L 664.11 325.24   A 0.73 0.73 0.0 0 1 664.84 325.97   L 664.84 345.55   A 0.57 0.57 0.0 0 1 664.27 346.12   L 647.75 346.12   A 0.62 0.62 0.0 0 0 647.13 346.74   L 647.13 407.71   A 0.42 0.42 0.0 0 1 646.71 408.13   Q 646.10 408.13 634.93 408.13   Q 623.76 408.12 623.15 408.12   A 0.42 0.42 0.0 0 1 622.73 407.70   L 622.78 346.73   A 0.62 0.62 0.0 0 0 622.16 346.11   L 605.64 346.10   A 0.57 0.57 0.0 0 1 605.07 345.53   L 605.08 325.95   A 0.73 0.73 0.0 0 1 605.81 325.22   L 622.28 325.23   A 0.50 0.49 -90.0 0 0 622.77 324.73   L 622.79 303.43   A 0.58 0.58 0.0 0 1 623.36 302.85   Q 626.95 302.73 634.97 302.74   Z"/>
<path fill="#000000" d="   M 269.90 336.23   A 0.43 0.43 0.0 0 0 270.67 336.50   Q 283.33 320.59 303.84 325.10   A 0.98 0.97 -72.5 0 1 304.53 326.43   L 295.30 348.46   A 0.67 0.66 20.8 0 1 294.47 348.83   C 285.47 345.83 275.68 349.46 271.91 358.33   Q 270.33 362.03 270.63 373.34   Q 270.68 375.36 270.61 407.72   A 0.39 0.39 0.0 0 1 270.22 408.11   L 246.74 408.11   A 0.48 0.48 0.0 0 1 246.26 407.63   L 246.26 325.99   A 0.77 0.76 -0.0 0 1 247.03 325.23   L 269.18 325.23   A 0.72 0.72 0.0 0 1 269.90 325.95   L 269.90 336.23   Z"/>
<path fill="#000000" d="   M 370.95 401.99   A 0.43 0.43 0.0 0 1 370.78 402.51   Q 365.04 405.97 358.78 407.52   C 333.52 413.78 305.60 404.06 300.77 375.54   C 296.02 347.46 314.78 321.58 344.96 324.26   C 370.42 326.52 383.74 350.49 378.03 374.12   A 0.57 0.57 0.0 0 1 377.47 374.57   L 322.83 374.57   A 0.51 0.51 0.0 0 0 322.36 375.27   Q 328.66 390.95 345.99 389.84   Q 355.28 389.25 363.01 384.52   A 0.54 0.54 0.0 0 1 363.79 384.78   L 370.95 401.99   Z   M 322.59 359.31   L 356.18 359.31   A 0.70 0.68 87.3 0 0 356.86 358.55   Q 355.83 347.78 347.87 344.57   C 336.27 339.91 324.96 346.42 322.04 358.61   A 0.57 0.57 0.0 0 0 322.59 359.31   Z"/>
<rect fill="#000000" x="575.60" y="325.26" width="24.38" height="82.88" rx="0.50"/>
<path fill="#000000" d="   M 94.91 372.81   Q 92.08 372.72 90.79 372.22   C 84.48 369.80 83.92 362.86 85.67 357.24   C 87.07 352.71 90.80 349.22 95.65 349.37   C 100.50 349.53 104.00 353.25 105.12 357.86   C 106.50 363.57 105.50 370.47 99.05 372.49   Q 97.73 372.90 94.91 372.81   Z"/>
<path fill="#000000" d="   M 150.05 349.35   C 154.90 349.13 158.69 352.58 160.16 357.11   C 161.99 362.71 161.52 369.68 155.23 372.20   Q 153.94 372.71 151.11 372.84   Q 148.27 372.97 146.94 372.57   C 140.45 370.63 139.35 363.73 140.67 357.99   C 141.73 353.34 145.19 349.57 150.05 349.35   Z"/>
<path fill="#000000" d="   M 101.01 379.43   Q 102.78 378.71 105.25 378.56   Q 119.42 377.71 130.57 377.67   C 131.24 377.67 131.85 378.14 132.45 378.15   Q 138.03 378.26 143.58 378.89   A 1.50 1.49 -89.3 0 1 144.89 380.24   Q 145.17 383.44 143.40 385.94   Q 142.55 387.13 139.94 390.19   Q 137.42 393.16 132.74 395.21   C 120.37 400.65 106.65 395.33 101.09 383.00   A 2.02 2.01 -49.2 0 1 100.99 381.60   Q 101.22 380.78 100.79 380.18   A 0.50 0.50 0.0 0 1 101.01 379.43   Z"/>
</svg>